<?xml version="1.0" standalone="no"?>
<!DOCTYPE svg PUBLIC "-//W3C//DTD SVG 20010904//EN"
 "http://www.w3.org/TR/2001/REC-SVG-20010904/DTD/svg10.dtd">
<svg version="1.0" xmlns="http://www.w3.org/2000/svg"
 width="512.000000pt" height="512.000000pt" viewBox="0 0 512.000000 512.000000"
 preserveAspectRatio="xMidYMid meet">
<metadata>
Created by potrace 1.11, written by Peter Selinger 2001-2013
</metadata>
<g transform="translate(0.000000,512.000000) scale(0.100000,-0.100000)"
fill="#000000" stroke="none">
<path d="M2340 5109 c-503 -48 -987 -244 -1377 -557 -121 -98 -287 -262 -374
-370 l-62 -77 759 -5 759 -5 0 -510 0 -510 -992 -3 -992 -2 -10 -53 c-50 -252
-52 -601 -5 -872 8 -49 17 -98 20 -107 5 -17 61 -18 1000 -18 l994 0 0 520 0
520 510 0 510 0 2 -517 3 -518 992 -3 c938 -2 992 -1 997 15 28 90 38 210 43
474 4 234 2 307 -12 400 -9 63 -19 124 -22 136 l-5 23 -987 2 -986 3 -3 512
-2 513 756 2 756 3 -67 83 c-153 190 -397 404 -614 539 -474 296 -1049 434
-1591 382z"/>
<path d="M561 983 c54 -70 209 -239 266 -288 106 -94 180 -155 187 -155 3 0 6
104 6 230 l0 230 -236 0 c-224 0 -236 -1 -223 -17z"/>
<path d="M2050 532 l0 -469 68 -12 c173 -30 242 -35 452 -35 211 0 348 12 490
42 l35 8 0 464 0 465 -522 3 -523 2 0 -468z"/>
<path d="M4127 993 c-9 -8 -9 -453 -1 -453 8 0 149 119 221 186 57 53 193 202
225 247 l19 27 -229 0 c-126 0 -232 -3 -235 -7z"/>
</g>
</svg>
